# xmcd
#
# Track frame offsets:
#	150
#	21207
#	40599
#	55497
#	70010
#	86735
#	105279
#	125225
#	151520
#	167491
#	187168
#	208141
#	219574
#
# Disc length: 3154 seconds
#
# Revision: 0
# Processed by: cddbd v1.5.2PL0 Copyright (c) Steve Scherf et al.
# Submitted via: EasyCDDAExtractor 10.0.2.1
#
DISCID=b00c500d
DTITLE=Reidar Larsen and Roy Rogers - Crossing
DYEAR=2006
DGENRE=Blues
TTITLE0=Actions And Words
TTITLE1=No Tell Hotel (Re-Recording)
TTITLE2=Lonely Is The Heart That Let You Go
TTITLE3=All My Love Is Taken Away
TTITLE4=One Big Heartache
TTITLE5=Capricorn Woman
TTITLE6=Invisible Man
TTITLE7=Robbery (Re-Recording)
TTITLE8=Take Her Back Home
TTITLE9=Her Place, Not Mine
TTITLE10=Second Skin
TTITLE11=Crossing
TTITLE12=You Don't Have To Say Goodbye
EXTD=
EXTT0=
EXTT1=
EXTT2=
EXTT3=
EXTT4=
EXTT5=
EXTT6=
EXTT7=
EXTT8=
EXTT9=
EXTT10=
EXTT11=
EXTT12=
PLAYORDER=
